<?xml version="1.0" encoding="utf-8"?>
<!-- Generator: Adobe Illustrator 15.1.0, SVG Export Plug-In . SVG Version: 6.00 Build 0)  -->
<!DOCTYPE svg PUBLIC "-//W3C//DTD SVG 1.1//EN" "http://www.w3.org/Graphics/SVG/1.1/DTD/svg11.dtd">
<svg version="1.1"
	 id="svg2" sodipodi:docname="Blank US Map.svg" sodipodi:docbase="/home/theshibboleth/Desktop/Wiki/election maps" inkscape:version="0.44" sodipodi:version="0.32" xmlns:rdf="http://www.w3.org/1999/02/22-rdf-syntax-ns#" xmlns:svg="http://www.w3.org/2000/svg" xmlns:sodipodi="http://sodipodi.sourceforge.net/DTD/sodipodi-0.dtd" xmlns:inkscape="http://www.inkscape.org/namespaces/inkscape" xmlns:cc="http://web.resource.org/cc/" xmlns:dc="http://purl.org/dc/elements/1.1/"
	 xmlns="http://www.w3.org/2000/svg" xmlns:xlink="http://www.w3.org/1999/xlink" x="0px" y="0px" width="1368px" height="936px"
	 viewBox="0 0 1368 936" enable-background="new 0 0 1368 936" xml:space="preserve">
<sodipodi:namedview  fill="#d3d3d3" inkscape:zoom="0.99999999" inkscape:cx="374.60758" inkscape:cy="340.17222" bordercolor="#666666" id="base" borderopacity="1.0" pagecolor="#ffffff" showgrid="false" showguides="true" inkscape:window-width="1430" inkscape:window-height="796" inkscape:window-y="25" inkscape:window-x="0" inkscape:pageopacity="0.0" inkscape:pageshadow="2" inkscape:current-layer="svg2" inkscape:guide-bbox="true">
	</sodipodi:namedview>
<path id="HI" fill="#EDEDED" d="M269.541,556.789l1.939-3.557l2.263-0.323l0.324,0.811l-2.104,3.069H269.541L269.541,556.789z
	 M279.726,553.07l6.143,2.587l2.103-0.322l1.617-3.881l-0.646-3.396l-4.203-0.483l-4.042,1.776L279.726,553.07z M310.441,563.093
	l3.718,5.496l2.426-0.323l1.132-0.482l1.455,1.293l3.72-0.162l0.97-1.452l-2.91-1.778l-1.939-3.719l-2.103-3.56l-5.82,2.91
	L310.441,563.093z M330.648,571.985l1.293-1.938l4.688,0.97l0.646-0.482l6.144,0.646l-0.323,1.293l-2.587,1.455l-4.363-0.322
	L330.648,571.985z M335.983,577.158l1.938,3.88l3.071-1.132l0.323-1.616l-1.617-2.104l-3.718-0.321L335.983,577.158L335.983,577.158
	z M342.935,576.026l2.264-2.909l4.688,2.425l4.365,1.133l4.364,2.749v1.938l-3.559,1.776l-4.85,0.971l-2.426-1.454L342.935,576.026z
	 M359.587,591.545l1.616-1.294l3.396,1.615l7.6,3.559l3.396,2.104l1.616,2.425l1.94,4.364l4.042,2.588l-0.323,1.293l-3.88,3.231
	l-4.203,1.455l-1.455-0.646l-3.071,1.776l-2.425,3.233l-2.263,2.907l-1.778-0.162l-3.557-2.586l-0.323-4.523l0.646-2.427
	l-1.615-5.656l-2.104-1.777l-0.162-2.587l2.267-0.971l2.102-3.072l0.485-0.971l-1.617-1.776L359.587,591.545z"/>
<path id="AK" fill="#EDEDED" d="M194.53,482.154l-0.322,85.355l1.616,0.972l3.071,0.16l1.455-1.132h2.586l0.16,2.91l6.952,6.789
	l0.484,2.587l3.396-1.938l0.646-0.162l0.324-3.07l1.455-1.615l1.132-0.161l1.938-1.455l3.07,2.104l0.646,2.909l1.938,1.131
	l1.132,2.428l3.88,1.775l3.396,5.981l2.748,3.88l2.263,2.748l1.455,3.719l5.012,1.777l5.174,2.103l0.972,4.364l0.482,3.071
	l-0.97,3.396l-1.777,2.264l-1.615-0.809l-1.455-3.071l-2.748-1.455l-1.778-1.132l-0.809,0.811l1.455,2.748l0.159,3.72l-1.131,0.481
	l-1.938-1.938l-2.104-1.294l0.485,1.616l1.293,1.776l-0.809,0.811c0,0-0.81-0.324-1.295-0.973c-0.482-0.646-2.102-3.396-2.102-3.396
	l-0.97-2.264c0,0-0.323,1.294-0.973,0.971c-0.646-0.323-1.293-1.455-1.293-1.455l1.778-1.938l-1.455-1.455v-5.011h-0.808
	l-0.812,3.396l-1.132,0.483l-0.97-3.721l-0.646-3.718l-0.809-0.484l0.323,5.657v1.133l-1.455-1.293l-3.56-5.979l-2.102-0.484
	l-0.647-3.719l-1.614-2.909l-1.616-1.132v-2.267l2.102-1.293l-0.483-0.322l-2.587,0.646l-3.396-2.425l-2.587-2.91l-4.851-2.586
	l-4.042-2.588l1.293-3.231v-1.616l-1.777,1.616l-2.91,1.132l-3.718-1.132l-5.658-2.427h-5.497l-0.646,0.485l-6.467-3.881
	l-2.103-0.322l-2.749-5.82l-3.557,0.323l-3.559,1.455l0.484,4.524l1.133-2.908l0.97,0.32l-1.454,4.364l3.231-2.748l0.646,1.616
	l-3.88,4.365l-1.294-0.323l-0.483-1.939l-1.293-0.809l-1.293,1.131l-2.748-1.777l-3.072,2.104l-1.777,2.104l-3.396,2.104
	l-4.688-0.162l-0.483-2.104l3.718-0.646v-1.294l-2.263-0.646l0.97-2.425l2.263-3.881v-1.776l0.162-0.81l4.365-2.265l0.97,1.293
	h2.749l-1.287-2.588l-3.718-0.323l-5.012,2.748l-2.428,3.396l-1.775,2.587l-1.131,2.264l-4.203,1.455l-3.072,2.587l-0.323,1.616
	l2.265,0.971l0.809,2.103l-2.748,3.231l-6.466,4.203l-7.761,4.204l-2.104,1.131l-5.335,1.132l-5.335,2.264l1.777,1.294l-1.455,1.454
	l-0.484,1.135l-2.748-0.974l-3.231,0.162l-0.81,2.265h-0.97l0.322-2.427l-3.558,1.294l-2.908,0.971l-3.396-1.293l-2.91,1.938H82.81
	l-2.104,1.293l-1.617,0.811l-2.103-0.321l-2.586-1.134l-2.263,0.646l-0.972,0.972l-1.614-1.133v-1.938l3.069-1.293l6.307,0.646
	l4.363-1.616l2.104-2.102l2.91-0.646l1.776-0.809l2.748,0.162l1.616,1.293l0.971-0.323l2.265-2.748l3.069-0.971l3.396-0.646
	l1.293-0.322l0.646,0.484h0.811l1.293-3.719l4.042-1.455l1.938-3.719l2.266-4.525l1.615-1.455l0.322-2.587l-1.616,1.294
	l-3.395,0.646l-0.646-2.427l-1.293-0.321l-0.97,0.97l-0.162,2.91l-1.455-0.162l-1.455-5.818l-1.293,1.293l-1.131-0.482l-0.324-1.939
	l-4.041,0.161l-2.103,1.132l-2.586-0.322l1.455-1.453l0.484-2.589l-0.646-1.938l1.455-0.97l1.293-0.162l-0.646-1.778v-4.369
	l-0.97-0.972l-0.809,1.454h-6.145l-1.455-1.293l-0.646-3.88l-2.104-3.56v-0.97l2.104-0.81l0.161-2.104l1.132-1.133l-0.809-0.481
	l-1.295,0.481l-1.131-2.748l0.972-5.012l4.524-3.233l2.587-1.613l1.939-3.721l2.748-1.294l2.586,1.132l0.324,2.428l2.425-0.322
	l3.231-2.426l1.617,0.646l0.971,0.646h1.616l2.265-1.293l0.808-4.364c0,0,0.323-2.909,0.971-3.396
	c0.646-0.481,0.972-0.97,0.972-0.97l-1.131-1.938l-2.589,0.811l-3.231,0.809l-1.94-0.482l-3.546-1.78l-5.012-0.161l-3.559-3.719
	l0.485-3.881l0.646-2.425l-2.102-1.778l-1.94-3.718l0.485-0.812l6.79-0.482h2.102l0.973,0.971h0.646l-0.162-1.616l3.882-0.646
	l2.587,0.32l1.455,1.135l-1.455,2.102l-0.484,1.455l2.749,1.616l5.011,1.775l1.778-0.971l-2.264-4.365l-0.972-3.229l0.972-0.812
	l-3.396-1.938l-0.485-1.132l0.485-1.616l-0.809-3.88l-2.91-4.688l-2.425-4.203l2.91-1.938h3.231l1.777,0.646l4.204-0.162
	l3.718-3.556l1.133-3.072l3.718-2.425l1.617,0.971l2.747-0.646l3.719-2.104l1.132-0.16l0.972,0.81l4.524-0.161l2.749-3.07h1.131
	l3.559,2.427l1.938,2.103l-0.483,1.131l0.646,1.133l1.616-1.614l3.88,0.321l0.323,3.72l1.939,1.454l7.111,0.646l6.308,4.204
	l1.453-0.971l5.175,2.587l2.102-0.646l1.94-0.809l4.85,1.938L194.53,482.154z M79.428,511.091l2.104,5.335l-0.162,0.971
	l-2.909-0.322l-1.778-4.041l-1.776-1.455H72.48l-0.162-2.587l1.776-2.426l1.133,2.426l1.453,1.454L79.428,511.091z M76.841,544.555
	l3.72,0.811l3.718,0.972l0.809,0.97l-1.616,3.72l-3.07-0.161l-3.396-3.559L76.841,544.555z M56.148,530.491l1.131,2.587l1.132,1.616
	l-1.132,0.811l-2.104-3.072v-1.938L56.148,530.491L56.148,530.491z M42.408,603.562l3.395-2.265l3.395-0.972l2.587,0.323
	l0.485,1.614l1.94,0.484l1.939-1.939l-0.323-1.614l2.748-0.646l2.91,2.587l-1.131,1.775l-4.365,1.133l-2.749-0.482l-3.718-1.133
	l-4.365,1.455l-1.617,0.321L42.408,603.562z M91.392,599.035l1.616,1.938l2.104-1.615l-1.455-1.294L91.392,599.035z M94.301,602.107
	l1.132-2.266l2.104,0.321l-0.811,1.938h-2.425V602.107z M117.902,600.167l1.455,1.778l0.97-1.133l-0.808-1.938L117.902,600.167z
	 M126.633,587.719l1.131,5.817l2.91,0.811l5.013-2.909l4.363-2.588l-1.614-2.425l0.483-2.425l-2.103,1.293l-2.91-0.811l1.617-1.133
	l1.938,0.811l3.88-1.776l0.484-1.455l-2.425-0.812l0.809-1.938l-2.749,1.938l-4.688,3.56l-4.852,2.91L126.633,587.719z
	 M168.987,567.833l2.426-1.453l-0.971-1.778l-1.777,0.972L168.987,567.833z"/>
<path id="FL" sodipodi:nodetypes="cccccccccccccccccccccccccccccccccccccccccccccccccccccccccccccccccccccccccccccccccccccccccccccccccccccccccccccccccccccccccccccccccccccccccccccc" fill="#EDEDED" d="
	M791.851,473.986l2.267,7.316l3.729,9.742l5.335,9.377l3.721,6.305l4.85,5.496l4.042,3.719l1.616,2.909l-1.131,1.293l-0.812,1.294
	l2.91,7.438l2.909,2.906l2.587,5.335l3.557,5.82l4.526,8.243l1.293,7.6l0.484,11.963l0.646,1.778l-0.323,3.396l-2.425,1.293
	l0.322,1.938l-0.646,1.938l0.322,2.426l0.485,1.939l-2.749,3.23l-3.071,1.454l-3.88,0.161l-1.455,1.616l-2.425,0.971l-1.293-0.483
	l-1.133-0.972l-0.322-2.908l-0.812-3.396l-3.395-5.174l-3.561-2.265l-3.88-0.321l-0.809,1.293l-3.071-4.365l-0.646-3.558
	l-2.587-4.043l-1.778-1.132l-1.615,2.104l-1.776-0.323l-2.104-5.012l-2.91-3.881l-2.907-5.335l-2.589-3.07l-3.557-3.72l2.103-2.426
	l3.232-5.495l-0.162-1.616l-4.523-0.972l-1.616,0.646l0.322,0.646l2.588,0.972l-1.455,4.525l-0.812,0.483l-1.775-4.041l-1.294-4.853
	l-0.322-2.748l1.455-4.688v-9.538l-3.072-3.72l-1.293-3.07l-5.173-1.294l-1.939-0.646l-1.615-2.588l-3.396-1.615l-1.131-3.396
	l-2.749-0.97l-2.426-3.719l-4.202-1.454l-2.91-1.455h-2.586l-4.043,0.809l-0.16,1.939l0.81,0.97l-0.483,1.132l-3.07-0.161
	l-3.72,3.56l-3.558,1.938h-3.881l-3.231,1.293l-0.322-2.748l-1.616-1.938l-2.908-1.132l-1.615-1.455l-8.083-3.88l-7.602-1.777
	l-4.362,0.646l-5.98,0.483l-5.979,2.104l-3.479,0.61l-0.237-8.051l-2.587-1.938l-1.776-1.778l0.321-3.07l10.188-1.295l25.543-2.907
	l6.789-0.646l5.437,0.28l2.587,3.88l1.454,1.454l8.102,0.516l10.816-0.646l21.516-1.295l5.442-0.675l4.577,0.027l0.161,2.91
	l3.824,0.809l0.322-4.807l-1.616-4.527l0.955-0.73l5.111,0.454L791.851,473.986z M804.396,606.391l2.425-0.646l1.294-0.241
	l1.455-2.346l2.344-1.614l1.293,0.481l1.698,0.322l0.4,1.052l-3.477,1.213l-4.203,1.455l-2.344,1.212L804.396,606.391z
	 M817.895,601.379l1.213,1.051l2.748-2.104l5.336-4.203l3.718-3.88l2.506-6.628l0.97-1.695l0.162-3.396l-0.729,0.484l-0.974,2.829
	l-1.454,4.604l-3.229,5.254l-4.365,4.203l-3.396,1.938L817.895,601.379z"/>
<path id="SC" fill="#EDEDED" d="M797.683,441.417l-1.773,0.972l-2.587-1.293l-0.646-2.104l-1.293-3.559l-2.265-2.104l-2.586-0.646
	l-1.617-4.853l-2.748-5.979l-4.203-1.938l-2.102-1.938l-1.293-2.586l-2.104-1.939l-2.263-1.293l-2.268-2.909l-3.067-2.264
	l-4.526-1.777l-0.482-1.453l-2.428-2.91l-0.48-1.455l-3.396-5.173l-3.396,0.161l-4.042-2.428l-1.293-1.293l-0.322-1.777l0.809-1.938
	l2.266-0.972l-0.323-2.104l6.145-2.586l9.056-4.524l7.271-0.811l16.488-0.484l2.265,1.939l1.615,3.231l4.365-0.483l12.606-1.455
	l2.909,0.811l12.609,7.598l10.107,8.122l-5.424,5.458l-2.587,6.146l-0.482,6.307l-1.616,0.809l-1.132,2.749l-2.425,0.646
	l-2.104,3.558l-2.748,2.748l-2.264,3.396l-1.616,0.812l-3.557,3.396l-2.91,0.162l0.97,3.232l-5.012,5.496L797.683,441.417z"/>
<path id="GA" sodipodi:nodetypes="ccccccccccccccccccccccccccccccccccccccccccccccccccccccccccccccccccccccccccccc" fill="#EDEDED" d="
	M726.069,386.452l-4.853,0.811l-8.404,1.132l-8.567,0.891v2.185l0.162,2.103l0.646,3.396l3.396,7.922l2.425,9.86l1.455,6.144
	l1.617,4.851l1.455,6.952l2.102,6.308l2.586,3.396l0.485,3.396l1.938,0.809l0.161,2.103l-1.774,4.853l-0.485,3.23l-0.161,1.939
	l1.616,4.363l0.323,5.335l-0.812,2.426l0.646,0.81l1.455,0.811l0.646,3.396l2.586,3.88l1.455,1.455l7.922,0.161l10.819-0.646
	l21.513-1.293l5.445-0.675l4.576,0.025l0.162,2.908l2.587,0.81l0.321-4.361l-1.615-4.527l1.132-1.615l5.817,0.812l4.979,0.314
	l-0.773-6.299l2.266-10.021l1.455-4.202l-0.485-2.588l3.335-6.243l-0.511-1.354l-1.913,0.704l-2.587-1.293l-0.646-2.104
	l-1.293-3.559l-2.265-2.104l-2.587-0.646l-1.616-4.852l-2.925-6.335l-4.203-1.938l-2.104-1.938l-1.293-2.587l-2.104-1.938
	l-2.263-1.293l-2.268-2.91l-3.068-2.265l-4.525-1.776l-0.485-1.455l-2.425-2.91l-0.482-1.454l-3.396-4.906l-3.396,0.161
	l-4.132-3.044l-1.294-1.293l-0.32-1.778l0.81-1.938l2.354-1.233l-1.131-1.241l0.078-0.291l-5.817,0.971l-6.951,0.81L726.069,386.452
	z"/>
<path id="AL" sodipodi:nodetypes="cccccccccccccccccccccccccccccccccccccccccccccccccc" fill="#EDEDED" d="M662.052,495.251
	l-1.612-15.196l-2.748-18.753l0.16-14.062l0.81-31.038l-0.162-16.649l0.165-6.419l7.757-0.371l27.81-2.586l8.922-0.663l-0.147,2.184
	l0.162,2.104l0.646,3.396l3.395,7.921l2.425,9.861l1.455,6.144l1.617,4.853l1.454,6.951l2.103,6.306l2.588,3.396l0.483,3.396
	l1.938,0.809l0.16,2.104l-1.775,4.851l-0.485,3.232l-0.161,1.938l1.616,4.365l0.322,5.335l-0.81,2.425l0.646,0.81l1.453,0.811
	l1.035,2.535h-6.308l-6.789,0.646l-25.543,2.909l-10.411,1.407l-0.097,3.752l1.777,1.776l2.587,1.938l0.581,7.938l-5.542,2.572
	l-2.749-0.322l2.749-1.938v-0.971l-3.072-5.98l-2.263-0.646l-1.455,4.364l-1.294,2.748l-0.646-0.162h-2.746L662.052,495.251
	L662.052,495.251z"/>
<path id="NC" sodipodi:nodetypes="ccccccccccccccccccccccccccccccccccccccccccccccccccccccccccccccscccccccccccccccccccccccccccccccc" fill="#EDEDED" d="
	M868.561,326.951l1.709,4.699l3.558,6.466l2.425,2.425l0.646,2.266l-2.428,0.161l0.812,0.646l-0.323,4.202l-2.587,1.294
	l-0.646,2.104l-1.293,2.908l-3.72,1.615l-2.425-0.322l-1.455-0.16l-1.616-1.293l0.323,1.293v0.971h1.938l0.811,1.293l-1.938,6.306
	h4.203l0.646,1.616l2.263-2.264l1.294-0.484l-1.938,3.558l-3.07,4.852h-1.293l-1.132-0.483l-2.748,0.646l-5.177,2.426l-6.466,5.335
	l-3.396,4.688l-1.938,6.467l-0.483,2.425l-4.688,0.485l-5.452,1.337l-9.945-8.203l-12.609-7.601l-2.908-0.81l-12.607,1.455
	l-4.276,0.75l-1.615-3.232l-2.972-2.115l-16.489,0.483l-7.272,0.81l-9.054,4.525l-6.146,2.587l-1.62,0.321l-5.819,0.971
	l-6.951,0.811l-6.788,0.483l0.5-4.056l1.775-1.454l2.75-0.646l0.646-3.721l4.203-2.748l3.88-1.455l4.203-3.557l4.361-2.104
	l0.646-3.071l3.881-3.88l0.646-0.161c0,0,0,1.133,0.81,1.133s1.938,0.321,1.938,0.321l2.266-3.558l2.102-0.646l2.266,0.324
	l1.615-3.559l2.909-2.587l0.485-2.104v-3.961l4.523,0.729l7.138-1.295l15.818-1.938l17.138-2.588l19.922-4.001l19.731-4.165
	l11.363-2.796L868.561,326.951z M872.456,359.939l2.587-2.508l3.151-2.587l1.534-0.646l0.162-2.021l-0.646-6.146l-1.455-2.345
	l-0.646-1.858l0.729-0.24l2.748,5.496l0.403,4.444l-0.162,3.396l-3.396,1.536l-2.827,2.425l-1.134,1.212L872.456,359.939z"/>
<path id="TN" sodipodi:nodetypes="ccccccccccccccccccccccccccccccccccccccsccccccccccccc" fill="#EDEDED" d="M733.507,349.108
	l-51.894,5.012l-15.76,1.778l-4.621,0.513l-3.869-0.025v3.879l-8.405,0.483l-6.951,0.646l-11.097,0.055l-0.266,5.836l-2.141,6.273
	l-0.995,3.019l-1.35,4.381l-0.323,2.587l-4.041,2.265l1.455,3.559l-0.971,4.363l-0.969,0.79l7.257-0.194l24.087-1.938l5.335-0.161
	l8.083-0.485l27.806-2.586l10.171-0.81l8.42-0.973l8.406-1.132l4.852-0.81l-0.132-4.509l1.778-1.455l2.748-0.646l0.646-3.719
	l4.202-2.748l3.881-1.455l4.203-3.559l4.364-2.104l0.874-3.523l4.333-3.882l0.646-0.159c0,0,0,1.131,0.809,1.131
	c0.811,0,1.94,0.324,1.94,0.324l2.263-3.559l2.104-0.646l2.266,0.322l1.614-3.557l2.113-2.246l0.603-0.967l0.177-3.936l-1.482-0.287
	l-2.426,1.938l-7.922,0.162l-11.995,1.897L733.507,349.108z"/>
<path id="RI" fill="#EDEDED" d="M910.523,208.303l-0.482-4.204l-0.809-4.365l-1.698-5.9l5.739-1.536l1.613,1.131l3.396,4.365
	l2.908,4.446l-2.91,1.536l-1.294-0.162l-1.132,1.778l-2.429,1.94L910.523,208.303z"/>
<path id="CT" sodipodi:nodetypes="cccccccccccccccccc" fill="#EDEDED" d="M909.646,208.529l-0.629-4.205l-0.81-4.365l-1.617-5.981
	l-4.148,0.904l-21.824,4.769l0.646,3.314l1.453,7.275v8.083l-1.133,2.263l1.832,2.109l4.956-3.401l3.558-3.233l1.938-2.102
	l0.809,0.646l2.748-1.455l5.175-1.132L909.646,208.529z"/>
<path id="MA" sodipodi:nodetypes="ccccccccccccccccccccccccccccccccccccccccccccccccccccccccccccccc" fill="#EDEDED" d="
	M936.431,202.331l2.175-0.686l0.457-1.714l1.026,0.114l1.028,2.286l-1.258,0.458l-3.89,0.114L936.431,202.331z M927.058,203.13
	l2.286-2.629h1.604l1.829,1.486l-2.401,1.029l-2.172,1.029L927.058,203.13z M892.259,181.143l17.459-4.203l2.267-0.646l2.102-3.233
	l3.736-1.663l2.89,4.413l-2.425,5.173l-0.324,1.455l1.94,2.586l1.132-0.808h1.775l2.266,2.586l3.88,5.981l3.557,0.485l2.267-0.97
	l1.775-1.778l-0.81-2.749l-2.104-1.617l-1.453,0.809l-0.973-1.293l0.484-0.485l2.103-0.162l1.777,0.808l1.938,2.425l0.972,2.91
	l0.321,2.425l-4.202,1.455l-3.882,1.94l-3.881,4.526l-1.938,1.455v-0.97l2.425-1.455l0.483-1.778l-0.811-3.072l-2.909,1.455
	l-0.811,1.455l0.483,2.263l-2.064,1l-2.747-4.527l-3.396-4.365l-2.07-1.812l-6.533,1.876l-5.092,1.051l-21.824,4.769l-0.4-4.944
	l0.646-10.589l5.173-0.889L892.259,181.143"/>
<path id="ME" sodipodi:nodetypes="ccccccccsccccccccccccccccccccccccccccccccccccccccccccccccccccccccccccccccccccccccccccccccsccccc" fill="#EDEDED" d="
	M959.669,105.811l1.938,2.102l2.264,3.718v1.94l-2.104,4.688l-1.938,0.647l-3.396,3.071l-4.853,5.497c0,0-0.646,0-1.294,0
	c-0.646,0-0.971-2.102-0.971-2.102l-1.777,0.162l-0.971,1.455l-2.426,1.455l-0.972,1.455l1.616,1.455L944.306,132l-0.483,2.749
	l-1.938-0.162v-1.617l-0.321-1.293L940.105,132l-1.777-3.233l-2.104,1.293l1.295,1.455l0.319,1.132l-0.809,1.293l0.323,3.072
	l0.161,1.617l-1.616,2.586l-2.909,0.485l-0.323,2.91l-5.335,3.071l-1.293,0.485l-1.616-1.455l-3.07,3.556l0.971,3.233l-1.455,1.293
	l-0.161,4.365l-1.124,6.259l-2.462-1.156l-0.482-3.072l-3.881-1.131l-0.322-2.749l-7.273-23.441l-4.198-13.64l1.421-0.118
	l1.515,0.41v-2.587l0.811-5.496l2.587-4.688l1.455-4.042l-1.938-2.425V95.3l0.81-0.97l0.812-2.749l-0.162-1.455l-0.162-4.85
	l1.777-4.85l2.909-8.892l2.103-4.203h1.295l1.293,0.162v1.132l1.293,2.263l2.748,0.646l0.81-0.808v-0.97l4.043-2.91l1.776-1.778
	l1.454,0.162l5.979,2.425l1.939,0.97l9.053,29.907h5.981l0.809,1.94l0.161,4.85l2.91,2.263h0.809l0.161-0.485l-0.483-1.132
	L959.669,105.811z M938.736,135.958l1.535-1.536l1.375,1.051l0.562,2.425l-1.697,0.889L938.736,135.958z M945.445,130.058
	l1.775,1.859c0,0,1.293,0.081,1.293-0.242c0-0.323,0.242-2.021,0.242-2.021l0.891-0.808l-0.811-1.778l-2.021,0.728L945.445,130.058z
	"/>
<path id="NH" sodipodi:nodetypes="ccccccccccccccccccccccccccccccccc" fill="#EDEDED" d="M917.253,170.904l0.868-1.077l1.091-3.291
	l-2.544-0.914l-0.482-3.071l-3.881-1.132l-0.32-2.748l-7.275-23.441l-4.604-14.543l-0.896-0.005l-0.646,1.617l-0.646-0.485
	l-0.972-0.97l-1.455,1.94l-0.048,5.032l0.312,5.667l1.938,2.748v4.042l-3.721,5.063l-2.587,1.131v1.132l1.133,1.778v8.568
	l-0.811,9.215l-0.161,4.85l0.972,1.293l-0.161,4.526l-0.483,1.778l1.455,0.886l16.39-4.69l2.265-0.646l1.533-2.552L917.253,170.904z
	"/>
<path id="VT" sodipodi:nodetypes="ccccccccccccccccccccccccccccc" fill="#EDEDED" d="M880.798,182.207l-0.81-5.658l-2.394-9.972
	l-0.646-0.323l-2.91-1.293l0.811-2.91l-0.811-2.102l-2.7-4.64l0.972-3.88l-0.81-5.173l-2.425-6.466l-0.81-4.922l26.247-6.748
	l0.324,5.819l1.94,2.749v4.042l-3.723,4.042l-2.586,1.131v1.132l1.132,1.778v8.568l-0.809,9.215l-0.162,4.85l0.971,1.293
	l-0.159,4.526l-0.485,1.778l0.661,1.567l-6.951,1.374L880.798,182.207z"/>
<path id="NY" sodipodi:nodetypes="cccccccccccccccccccccccccccccccccccccccccccccccccccccccccccccccccccccccccccccccccccccccccccccccccccccccc" fill="#EDEDED" d="
	M865.067,217.901l-1.132-0.97l-2.588-0.161l-2.266-1.94l-1.631-6.129l-3.458,0.091l-2.444-2.708l-19.385,4.382l-43.002,8.73
	l-7.529,1.228l-0.734-6.468l1.428-1.125l1.293-1.132l0.971-1.617l1.778-1.131l1.938-1.778l0.485-1.617l2.104-2.748l1.132-0.97
	l-0.161-0.97l-1.293-3.072l-1.778-0.162l-1.938-6.143l2.909-1.778l4.363-1.455l4.041-1.293l3.233-0.485l6.305-0.161l1.938,1.293
	l1.614,0.162l2.104-1.293l2.586-1.131l5.174-0.485l2.104-1.778l1.776-3.233l1.615-1.94h2.104l1.938-1.131l0.161-2.263l-1.455-2.102
	l-0.323-1.455l1.132-2.102v-1.455h-1.774l-1.778-0.808l-0.81-1.132l-0.161-2.586l5.816-5.497l0.647-0.808l1.453-2.91l2.91-4.526
	l2.747-3.718l2.103-2.425l2.416-1.826l3.081-1.246l5.496-1.293l3.232,0.162l4.523-1.455l7.564-2.071l0.521,4.98l2.427,6.466
	l0.81,5.173l-0.971,3.88l2.586,4.527l0.81,2.102l-0.81,2.91l2.91,1.293l0.646,0.323l3.071,10.993l-0.536,5.06l-0.483,10.831
	l0.81,5.497l0.81,3.557l1.455,7.274v8.083l-1.132,2.264l1.84,1.993l0.796,1.678l-1.938,1.778l0.322,1.293l1.293-0.323l1.454-1.293
	l2.267-2.586l1.131-0.647l1.615,0.647l2.265,0.162l7.922-3.88l2.91-2.748l1.293-1.455l4.202,1.617l-3.396,3.556l-3.881,2.91
	l-7.112,5.335l-2.587,0.97l-5.817,1.94l-4.043,1.131l-1.176-0.533l-0.244-3.688l0.484-2.748l-0.161-2.102l-2.812-1.699l-4.525-0.97
	l-3.88-1.131L865.067,217.901z"/>
<path id="NJ" fill="#EDEDED" d="M864.613,218.81l-2.104,2.425v3.072l-1.938,3.072l-0.162,1.616l1.293,1.293l-0.161,2.425
	l-2.264,1.132l0.809,2.748l0.162,1.132l2.748,0.323l0.97,2.586l3.561,2.425l2.425,1.617v0.809l-3.233,3.071l-1.614,2.263
	l-1.454,2.749l-2.267,1.293l-1.212,0.728l-0.242,1.212l-0.606,2.607l1.092,2.244l3.232,2.91l4.851,2.265l4.042,0.646l0.161,1.455
	l-0.812,0.97l0.323,2.748h0.812l2.102-2.425l0.809-4.853l2.748-4.042l3.072-6.466l1.131-5.497l-0.646-1.132l-0.162-9.376
	l-1.616-3.395l-1.132,0.808l-2.748,0.324l-0.483-0.485l1.133-0.97l2.103-1.94l0.063-1.094l-0.389-3.434l0.485-2.748l-0.162-2.102
	l-2.586-1.132l-4.526-0.97l-3.88-1.132L864.613,218.81z"/>
<path id="PA" sodipodi:nodetypes="cccccccccccccccccccccccccccccccccccccccccccc" fill="#EDEDED" d="M858.66,254.939l1.133-0.647
	l2.263-0.612l1.455-2.748l1.616-2.263l3.232-3.072v-0.808l-2.426-1.617l-3.56-2.425l-0.97-2.586l-2.748-0.323l-0.162-1.131
	l-0.809-2.749l2.264-1.131l0.162-2.425l-1.295-1.293l0.162-1.617l1.938-3.072v-3.071l2.345-2.425l0.214-1.083l-2.586-0.162
	l-2.264-1.94l-2.426-5.335l-3.005-0.931l-2.33-2.141l-18.591,4.041l-43.003,8.73l-8.894,1.455l-0.496-7.084l-5.484,5.63
	l-1.294,0.485l-4.201,3.009l2.909,19.137l2.479,9.729l3.572,19.262l3.27-0.638l11.942-1.504l37.928-7.667l14.876-2.823l8.302-1.622
	l0.269-0.239l2.103-1.617L858.66,254.939z"/>
<path id="DE" sodipodi:nodetypes="cccccccccccccccccccc" fill="#EDEDED" d="M858.808,258.902l0.591-2.103l0.021-1.205l-1.271-0.088
	l-2.104,1.616l-1.454,1.455l1.453,4.203l2.265,5.657l2.104,9.7l1.617,6.305l5.011-0.161l6.143-1.213l-2.265-7.354l-0.97,0.483
	l-3.561-2.426l-1.774-4.688l-1.939-3.56l-2.264-0.97L858.305,261L858.808,258.902z"/>
<path id="MD" sodipodi:nodetypes="ccccccccccccccccccccccccccccccccccccccccccccccccccsccccccccccccccccccccccccccccsccc" fill="#EDEDED" d="
	M873.406,283.784l-6.143,1.292l-5.809,0.162l-1.843-7.1l-2.104-9.7l-2.265-5.657l-1.288-4.398l-7.506,1.623l-14.877,2.823
	l-37.451,7.553l1.132,5.012l0.971,5.658l0.322-0.323l2.104-2.425l2.263-2.618l2.426-0.616l1.455-1.455l1.776-2.587l1.294,0.646
	l2.909-0.323l2.587-2.104l2.007-1.453l1.847-0.483l1.646,1.13l2.909,1.455l1.938,1.778l1.212,1.534l4.123,1.696v2.91l5.496,1.293
	l1.146,0.542l1.412-2.028l2.882,1.973l-1.276,2.479l-0.768,3.986l-1.777,2.586v2.102l0.646,1.778l5.063,1.355l4.312-0.062l3.07,0.97
	l2.104,0.323l0.97-2.102l-1.454-2.104v-1.778l-2.425-2.102l-2.104-5.497l1.293-5.335l-0.161-2.102l-1.293-1.294
	c0,0,1.454-1.616,1.454-2.266c0-0.646,0.485-2.102,0.485-2.102l1.938-1.293l1.939-1.617l0.482,0.97l-1.454,1.616l-1.294,3.718
	l0.322,1.132l1.777,0.323l0.483,5.497l-2.104,0.97l0.321,3.559l0.484-0.161l1.133-1.94l1.614,1.778l-1.614,1.293l-0.324,3.396
	l2.588,3.396l3.88,0.484l1.616-0.81l3.234,4.185l1.357,0.535l6.652-2.797l2.009-4.021L873.406,283.784z M856.773,292.769
	l1.132,2.507l0.161,1.777l1.133,1.857c0,0,0.89-0.89,0.89-1.212c0-0.321-0.729-3.07-0.729-3.07l-0.729-2.346L856.773,292.769z"/>
<path id="WV" sodipodi:nodetypes="cccccccccccccccccccccccccccccccccccccccccccscccccccccccccccccccccccccccccccccccccccccc" fill="#EDEDED" d="
	M793.015,270.446l1.112,4.944l1.082,6.906l3.562-2.749l2.264-3.071l2.538-0.615l1.455-1.455l1.774-2.586l1.184,0.646l2.908-0.323
	l2.586-2.102l2.009-1.453l1.846-0.485l1.306,1.017l2.229,1.114l1.938,1.778l1.375,1.293l-0.146,4.671l-5.657-3.072l-4.523-1.775
	l-0.162,5.335l-0.484,2.102l-1.614,2.748l-0.646,1.617l-3.071,2.425l-0.482,2.263l-3.396,0.324l-0.323,3.071l-1.132,5.497h-2.588
	l-1.293-0.811l-1.616-2.749l-1.774,0.162l-0.323,4.365l-2.104,6.628l-5.014,10.831l0.811,1.293l-0.161,2.748l-2.104,1.938
	l-1.454-0.322l-3.231,2.425l-2.586-0.97l-1.778,4.688c0,0-3.719,0.811-4.365,0.97c-0.646,0.161-2.425-1.293-2.425-1.293
	l-2.425,2.266l-2.587,0.646l-2.91-0.81l-1.293-1.293l-2.191-3.022l-3.144-1.986l-2.586-2.748l-2.91-3.72l-0.646-2.263l-2.588-1.455
	l-0.81-1.617l-0.242-5.254l2.186-0.081l1.938-0.809l0.162-2.749l1.615-1.454l0.162-5.013l0.97-3.88l1.293-0.646l1.294,1.132
	l0.484,1.777l1.776-0.97l0.483-1.617l-1.132-1.777v-2.426l0.97-1.293l2.266-3.395l1.293-1.455l2.104,0.483l2.264-1.617l3.071-3.396
	l2.264-3.88l0.323-5.658l0.483-5.011v-4.688l-1.133-3.071l0.973-1.455l1.28-1.293l3.49,19.827l4.632-0.751L793.015,270.446z"/>
<path id="KY" sodipodi:nodetypes="cccccccccccccccccccccccccccccccccccccccccccccccccccccccccccccccccccccccccccccccccccccccc" fill="#EDEDED" d="
	M758.236,326.297l-2.325,2.685l-4.202,3.556l-4.3,5.903l-1.777,1.775v2.104l-3.88,2.104l-5.658,3.396l-3.521,0.385l-51.868,4.896
	l-15.76,1.778l-4.621,0.513l-3.868-0.025l-0.228,4.222l-8.182,0.146l-6.951,0.646l-10.432,0.204l1.912-0.223l2.181-1.763
	l2.062-1.146l0.229-3.198l0.914-1.829l-1.604-2.539l0.802-1.906l2.264-1.778l2.104-0.646l2.747,1.294l3.558,1.293l1.131-0.322
	l0.162-2.265l-1.293-2.426l0.322-2.265l1.938-1.455l2.587-0.646l1.616-0.646l-0.809-1.775l-0.646-1.938l1.132-0.809l1.054-3.313
	l2.988-1.698l5.818-0.97l3.559-0.485l1.454,1.94l1.777,0.809l1.778-3.229l2.908-1.455l1.938,1.616l0.811,1.133l2.104-0.485
	l-0.162-3.395l2.91-1.617l1.132-0.81l1.132,1.614h4.688l0.809-2.102l-0.323-2.265l2.909-3.559l4.688-3.88l0.481-4.526l2.748-0.321
	l3.88-1.776l2.748-1.938l-0.322-1.939l-1.454-1.455l0.564-2.183l4.122-0.243l2.425-0.809l2.91,1.616l1.616,4.365l5.817,0.322
	l1.777,1.776l2.104,0.162l2.425-1.455l3.069,0.485l1.294,1.454l2.747-2.586l1.778-1.293h1.615l0.646,2.749l1.777,0.971l2.422,2.215
	l0.161,5.496l0.81,1.616l2.589,1.454l0.646,2.265l2.91,3.718l2.586,2.748L758.236,326.297z"/>
<path id="OH" sodipodi:nodetypes="cccccccccccccccccccccccccccccccccccccccccccccccccccccccccccccccc" fill="#EDEDED" d="
	M767.89,223.487l-6.094,4.053l-3.879,2.263l-3.396,3.718l-4.041,3.88l-3.233,0.808l-2.91,0.485l-5.495,2.586l-2.103,0.162
	l-3.396-3.071l-5.175,0.646l-2.586-1.455l-2.382-1.351l-4.896,0.703l-10.186,1.617l-7.76,1.212l1.294,14.63l1.774,13.74
	l2.589,23.441l0.563,4.831l4.122-0.129l2.425-0.812l3.363,1.503l2.07,4.365l5.14-0.017l1.892,2.117l1.764-0.063l2.538-1.341
	l2.505,0.372l1.976,1.455l1.729-2.135l2.346-1.293l2.07-0.681l0.646,2.748l1.777,0.97l3.478,2.344l2.185-0.078l1.146-1.149
	l-0.062-1.387l1.615-1.455l0.16-5.015l0.974-3.88l1.521-1.438l1.521,0.902l0.822,1.213l1.211-0.178l-0.423-2.411l-0.562-0.644
	v-2.425l0.97-1.293l2.263-3.396l1.294-1.455l2.104,0.485l2.263-1.617l3.071-3.396l2.264-3.88l0.21-5.433l0.485-5.011v-4.688
	l-1.133-3.071l0.971-1.455l0.921-0.955l-1.405-9.843L767.89,223.487z"/>
<g id="MI">
	<polygon fill="#EDEDED" points="675.788,147.68 677.729,145.094 682.901,144.932 688.721,146.225 690.497,146.225 693.73,144.77 
		695.994,144.932 698.098,144.285 701.815,144.77 702.625,145.093 703.918,144.77 702.625,143.799 701.331,143.153 698.101,140.082 
		698.101,133.13 696.645,132.646 695.513,133.776 689.368,135.394 687.43,135.878 684.52,135.07 684.036,134.748 684.036,129.089 
		682.581,128.928 679.994,130.221 675.469,132.161 668.841,132.483 665.444,133.614 661.403,137.171 659.787,138.142 
		658.655,138.142 657.362,138.949 655.745,138.464 654.129,137.171 652.675,138.142 648.795,138.303 646.047,135.555 
		644.593,132.483 643.138,131.352 639.904,130.381 637.642,130.381 636.348,129.088 632.79,131.999 631.819,133.13 631.011,132.646 
		631.334,130.06 633.759,126.827 634.243,124.401 636.507,123.593 637.962,120.521 641.681,119.552 642.003,118.582 
		640.871,117.449 636.183,117.935 631.818,120.359 629.556,122.623 628.261,124.4 626.483,125.208 624.544,128.119 624.383,129.412 
		620.02,131.514 617.594,133.454 611.613,134.423 610.967,135.069 610.967,136.04 607.41,138.303 604.661,139.111 603.945,139.692 
		607.662,144.837 615.554,145.98 623.783,148.153 626.638,149.183 638.758,151.926 640.811,154.212 644.354,155.583 
		646.296,165.871 647.666,166.901 648.844,167.937 652.026,160.936 652.996,156.894 654.936,152.528 655.744,152.367 
		656.876,153.983 657.521,153.983 662.048,151.559 663.503,153.175 663.987,153.337 665.28,152.207 666.412,149.134 
		668.838,148.327 	"/>
	<path fill="#EDEDED" d="M734.312,205.716l-3.231-8.245l-2.265-9.053l-2.426-3.233l-2.588-1.778l-1.615,1.132l-3.881,1.778
		l-1.938,5.011l-2.748,3.718l-1.132,0.646l-1.455-0.646c0,0-2.587-1.455-2.425-2.102c0.16-0.646,0.48-5.012,0.48-5.012l3.396-1.293
		l0.808-3.395l0.647-2.586l2.425-1.617l-0.323-10.023l-1.617-2.263l-1.293-0.809l-0.809-2.103l0.809-0.808l1.616,0.323l0.162-1.617
		l-2.423-2.263l-1.294-2.586h-2.587l-4.525-1.455l-5.497-3.395h-2.748l-0.646,0.647l-0.973-0.485l-3.069-2.264l-2.909,1.778
		l-2.909,2.263l0.322,3.557l0.971,0.323l2.104,0.485l0.482,0.809l-2.588,0.808l-2.586,0.324l-1.455,1.778l-0.322,2.102l0.322,1.616
		l0.323,5.497l-3.559,2.102l-0.646-0.162v-4.203l1.293-2.425l0.646-2.425l-0.81-0.809l-1.938,0.809l-0.972,4.203l-2.748,1.131
		l-1.774,1.94l-0.162,0.97l0.646,0.809l-0.646,2.586l-2.267,0.485v1.132l0.812,2.425l-1.131,6.143l-1.617,4.042l0.646,4.688
		l0.485,1.131l-0.81,2.425l-0.322,0.808l-0.323,2.748l3.558,5.981l2.909,6.466l1.455,4.85l-0.81,4.688l-0.971,5.981l-2.427,5.173
		l-0.322,2.748l-3.261,3.085l4.409-0.162l21.418-2.264l7.277-0.987l0.097,1.667l6.854-1.213l10.299-1.503l3.854-0.461l0.141-0.587
		l0.161-1.455l2.104-3.718l2-1.738l-0.222-5.052l1.597-1.597l1.091-0.343l0.222-3.557l1.536-3.031l1.053,0.606l0.16,0.646
		l0.812,0.162l1.938-0.97L734.312,205.716z"/>
	<polygon fill="#EDEDED" points="621.729,110.767 625.044,108.823 630.189,103.68 629.732,103.223 627.446,103.793 622.073,107.681 
		619.901,108.48 618.072,110.539 619.672,111.682 	"/>
	<path fill="#EDEDED" d="M704.895,145.172l3.231,0.162l1.293-1.212c0,0-0.081-1.455-0.401-1.617
		c-0.323-0.162-1.616-1.859-1.616-1.859l-2.186,0.243l-1.616,0.161l-0.32,1.132l0.97,0.484L704.895,145.172z"/>
</g>
<path id="WY" sodipodi:nodetypes="ccccccccccccccccccc" fill="#EDEDED" d="M390.706,172.255l-10.55-0.807l-32.088-3.295
	l-16.231-2.058l-28.35-4.115l-19.892-2.972l-1.419,11.176l-3.839,24.26l-5.259,30.407l-1.53,10.516l-1.67,11.889l6.523,0.928
	l25.88,2.5l20.569,2.307l36.781,4.115l23.821,2.86l4.504-44.192l1.44-25.377L390.706,172.255z"/>
<path id="MT" sodipodi:nodetypes="cccccccccccccccccccccccccccccccccccccccccccccccccccccccc" fill="#EDEDED" d="M393.125,150.753
	l0.646-11.151l2.259-24.787c0.457-5.029,1.083-8.472,1.372-15.41l0.938-14.552l-30.676-2.808l-29.26-3.556l-29.261-4.042
	l-32.332-5.335l-18.431-3.395l-32.725-6.933l-4.479,21.348l3.431,7.544l-1.372,4.572l1.829,4.573l3.199,1.372l4.621,10.77
	l2.694,3.177l0.457,1.143l3.429,1.143l0.458,2.058l-7.087,17.604v2.515l2.518,3.201h0.913l4.802-2.972l0.686-1.143l1.603,0.686
	l-0.229,5.258l2.744,12.574l2.972,2.515l0.914,0.686l1.829,2.286l-0.457,3.429l0.688,3.43l1.144,0.914l2.287-2.286h2.743l3.2,1.601
	l2.516-0.915h4.114l3.658,1.6l2.742-0.457l0.457-2.972l2.974-0.686l1.372,1.372l0.458,3.201l1.777,1.365l1.534-11.565l20.691,2.972
	l28.188,3.955l16.553,1.897l31.446,3.456l10.989,1.524l1.052-15.428L393.125,150.753z"/>
<path id="ID" sodipodi:nodetypes="cccccccccccccccccccccccccccccccccccccccccccccccccccccccccccccccccccccccccc" fill="#EDEDED" d="
	M177.433,205.088l4.429-17.502l4.344-17.718l1.372-4.229l2.516-5.944l-1.257-2.286l-2.516,0.114l-0.8-1.029l0.457-1.143l0.343-3.086
	l4.458-5.487l1.829-0.458l1.143-1.143l0.571-3.201l0.915-0.686l3.887-5.83l3.886-4.344l0.229-3.772l-3.43-2.629l-1.314-4.401
	l0.4-9.66l3.655-16.46l4.458-20.805L210.78,59.9l0.762-3.803l12.996,2.528l-4.158,21.508l2.948,7.705l-1.051,4.572l1.988,4.573
	l3.199,1.692l4.46,9.807l2.695,3.818l0.618,1.143l3.429,1.143l0.458,2.539l-6.927,16.802l0.32,3.317l2.676,2.879l1.877,0.481
	l4.801-3.614l0.365-0.501l0.155,0.847l0.253,4.135l2.583,12.896l3.454,2.676l0.434,0.846l2.149,2.447l-0.777,2.787l0.686,3.75
	l1.945,0.915l2.126-1.645l2.583-0.481l3.36,1.601l2.516-0.594l3.794-0.16l3.979,1.6l2.744-0.297l0.938-2.33l2.491-1.649l0.729,1.693
	l0.617,2.238l2.311,2.539l-3.772,23.981l-5.144,29.009l-4.16-0.319l-8.187-1.532l-9.807-1.829l-12.163-2.378l-12.528-2.504
	l-8.48-1.84l-9.259-1.668l-9.235-1.783C175.963,205.096,184.426,206.592,177.433,205.088z"/>
<path id="WA" sodipodi:nodetypes="ccccccccccccccccccccccccccccccccccccccccccccccccccccccccccccccccccccccccccccccccccccccccccscccccc" fill="#EDEDED" d="
	M130.026,34.841l4.363,1.455l9.7,2.748l8.567,1.94l20.047,5.658l22.955,5.658l15.161,3.395l-1.004,3.884l-4.095,13.81l-4.458,20.805
	l-3.177,16.14l-0.353,9.379l-13.183-3.894l-15.568-3.383l-13.667,0.596l-1.581-1.532l-5.326,1.897l-3.977-0.25l-2.723-1.761
	l-1.579,0.525l-4.205-0.229l-1.875-1.372l-4.775-1.737l-1.442-0.207l-4.983-1.326l-1.783,1.508l-5.691-0.343l-4.82-3.794l0.204-0.8
	l0.068-7.934l-2.125-3.887l-4.115-0.732l-0.363-2.354l-2.516-0.627l-2.882-0.535l-1.778,0.97l-2.264-2.91l0.324-2.91l2.748-0.323
	l1.614-4.042l-2.587-1.132l0.162-3.718l4.365-0.646l-2.749-2.749l-1.455-7.113l0.646-2.91v-7.922l-1.777-3.233l2.263-9.376
	l2.104,0.485l2.425,2.91l2.749,2.586l3.23,1.94l4.527,2.104l3.071,0.646l2.909,1.455l3.396,0.97l2.263-0.162v-2.425l1.294-1.131
	l2.104-1.293l0.322,1.132l0.322,1.778l-2.264,0.485l-0.323,2.102l1.778,1.455l1.132,2.425l0.646,1.94l1.455-0.162l0.16-1.293
	l-0.97-1.293l-0.483-3.233l0.808-1.778l-0.646-1.455v-2.263l1.778-3.556l-1.133-2.587l-2.425-4.85l0.322-0.809L130.026,34.841z
	 M120.57,40.82l2.021-0.162l0.484,1.374l1.536-1.617h2.345l0.809,1.536l-1.534,1.698l0.646,0.808l-0.729,2.021l-1.374,0.404
	c0,0-0.891,0.081-0.891-0.242c0-0.323,1.455-2.586,1.455-2.586l-1.698-0.566l-0.321,1.455l-0.729,0.647l-1.536-2.263L120.57,40.82z"
	/>
<path id="TX" sodipodi:nodetypes="ccccccccccccccccccccccccccccccccccccccccccccccccccccccccccccccccccccccccccccccccccccccccccccccccccccccccccccccccccccccccccccccccccccccccccccccccccccccccccccccccccccccccccccccccccccccccc" fill="#EDEDED" d="
	M393.507,361.853l22.69,1.088l31.094,1.143l-2.336,23.456l-0.297,18.153l0.066,2.081l4.346,3.817l1.733,0.82l1.812,0.253
	l0.688-1.255l0.893,0.865l1.734,0.479l1.604-0.729l1.139,0.408l-0.297,3.405l4.275,1.028l2.676,0.821l3.954,0.524l2.191,1.829
	l3.248-1.576l2.787,0.364l2.034,2.786l1.074,0.32l-0.16,1.965l3.089,1.168l2.771-1.806l1.509,0.364l2.354,0.159l0.436,1.872
	l4.642,1.989l2.656-0.205l1.988-4.113h0.341l1.144,1.896l4.438,1.007l3.337,1.211l3.293,0.754l2.148-0.754l0.848-2.516h3.702
	l1.896,0.754l3.064-1.575h0.66l0.362,1.119h4.275l2.403-1.257l1.668,0.297l1.416,1.872l2.88,1.669l3.521,1.075l2.743,1.418
	l2.447,1.622l3.293-0.892l1.938,0.98l0.514,10.142l0.335,9.701l0.687,9.532l0.524,4.047l2.677,4.602l1.074,4.062l3.861,6.289
	l0.55,2.88l0.523,1.009l-0.688,7.495l-2.649,4.39l0.957,2.857l-0.362,2.518l-0.849,7.313l-1.372,2.721l0.604,4.388l-5.665,1.585
	l-9.861,4.525l-0.97,1.938l-2.587,1.939l-2.104,1.455l-1.293,0.81l-5.657,5.334l-2.747,2.104l-5.335,3.231l-5.658,2.425
	l-6.307,3.396l-1.775,1.453l-5.819,3.558l-3.396,0.646l-3.881,5.495l-4.043,0.323l-0.97,1.939l2.266,1.938l-1.455,5.496
	l-1.293,4.525l-1.134,3.881l-0.81,4.525l0.81,2.425l1.777,6.951l0.971,6.145l1.777,2.749l-0.971,1.453l-3.071,1.938l-5.657-3.88
	l-5.497-1.132l-1.293,0.483l-3.23-0.646l-4.202-3.072l-5.174-1.131l-7.602-3.396l-2.103-3.881l-1.293-6.466l-3.232-1.939
	l-0.646-2.264l0.646-0.646l0.323-3.396l-1.293-0.646l-0.646-0.97l1.293-4.365l-1.614-2.263l-3.231-1.294l-3.396-4.364l-3.558-6.629
	l-4.204-2.586l0.162-1.94l-5.334-12.286l-0.811-4.2l-1.776-1.938l-0.162-1.455l-5.979-5.335l-2.586-3.071v-1.132l-2.586-2.103
	l-6.79-1.135l-7.438-0.646l-3.071-2.266l-4.524,1.776l-3.559,1.455l-2.264,3.232l-0.97,3.72l-4.365,6.144l-2.425,2.426l-2.586-0.972
	l-1.778-1.132l-1.938-0.646l-3.882-2.266v-0.646l-1.776-1.938l-5.173-2.103l-7.438-7.761l-2.263-4.688v-8.083l-3.233-6.466
	l-0.483-2.733l-1.614-0.97l-1.134-2.104l-5.012-2.102l-1.293-1.616l-7.113-7.922l-1.293-3.233l-4.688-2.263l-1.455-4.365
	l-2.586-2.908l-1.94-0.482l-0.647-4.68l8.002,0.688l29.035,2.744l29.033,1.601l2.287-23.774l3.888-55.557l1.602-18.748l1.371,0.028
	 M493.683,595.802l-0.563-7.111l-2.748-7.194l-0.564-7.03l1.535-8.244l3.313-6.871l3.477-5.415l3.151-3.557l0.646,0.24l-4.77,6.63
	l-4.365,6.548l-2.021,6.628l-0.323,5.173l0.889,6.145l2.587,7.192l0.485,5.175l0.161,1.453L493.683,595.802z"/>
<path id="CA" sodipodi:nodetypes="ccccccccccccccccccccccccccccccccccccccccccccccccccccccccccccccccccccccccccccccccccccccccccccccccccccccccccccccccccccccccccccccccccccccccccscc" fill="#EDEDED" d="
	M173.194,415.233l3.813-0.489l1.485-2.011l0.73-1.939l-3.176-0.092l-1.1-1.766l0.777-1.715l-0.047-6.148l2.22-1.328l2.696-2.583
	l0.411-4.915l1.646-3.495l1.941-2.104l3.271-1.715l1.278-0.729l0.757-1.48l-0.869-0.896l-0.96-1.511l-0.938-5.349l-2.902-5.235
	l0.097-2.787l-2.201-3.248l-14.999-23.229l-19.433-28.715l-22.428-33.032l-12.701-19.545l1.797-7.208l6.812-25.949l8.116-31.436
	l-12.365-3.337l-13.486-3.43l-12.574-4.115l-7.544-2.058l-11.433-2.972l-7.052-2.412l-1.58,4.725l-0.162,7.437l-5.173,11.801
	l-3.069,2.587l-0.323,1.131l-1.778,0.809l-1.455,4.203l-0.809,3.233l2.749,4.203l1.617,4.203l1.132,3.557l-0.323,6.467l-1.778,3.071
	l-0.646,5.82l-0.97,3.718l1.778,3.88l2.748,4.526l2.265,4.85l1.293,4.042l-0.322,3.233l-0.322,0.483v2.104l5.657,6.305l-0.484,2.425
	l-0.646,2.266l-0.646,1.938l0.162,8.245l2.104,3.718l1.938,2.586l2.748,0.485l0.97,2.749l-1.132,3.557l-2.103,1.616h-1.132
	l-0.81,3.88l0.484,2.91l3.231,4.364l1.616,5.334l1.455,4.688l1.293,3.07l3.396,5.82l1.454,2.587l0.484,2.91l1.617,0.97v2.426
	l-0.81,1.939l-1.777,7.11l-0.485,1.938l2.426,2.748l4.202,0.482l4.527,1.777l3.88,2.104h2.91l2.91,3.069l2.586,4.852l1.131,2.265
	l3.88,2.104l4.85,0.81l1.455,2.103l0.647,3.231l-1.455,0.646l0.323,0.97l3.23,0.811l2.748,0.16l2.91,4.688l3.88,4.202l0.809,2.264
	l2.588,4.203l0.321,3.23v9.377l0.485,1.777l10.021,1.454l19.725,2.749L173.194,415.233z M85.247,365.516l1.293,1.535l-0.162,1.294
	l-3.231-0.081l-0.566-1.213l-0.646-1.454L85.247,365.516z M87.187,365.516l1.212-0.646l3.557,2.104l3.072,1.212l-0.891,0.646
	l-4.525-0.24l-1.616-1.616L87.187,365.516z M107.88,385.32l1.777,2.344l0.809,0.972l1.536,0.564l0.565-1.455l-0.972-1.776
	l-2.667-2.021l-1.051,0.161L107.88,385.32L107.88,385.32z M106.425,393.968l1.777,3.15l1.213,1.938l-1.455,0.242l-1.293-1.213
	c0,0-0.729-1.455-0.729-1.858c0-0.402,0-2.183,0-2.183L106.425,393.968z"/>
<path id="AZ" sodipodi:nodetypes="ccccccccccccccccccccccccccccccccccccccccccccccccccc" fill="#EDEDED" d="M174.2,415.979
	l-2.627,2.158l-0.322,1.454l0.484,0.972l18.914,10.669l12.125,7.6l14.711,8.566l16.812,10.022l12.285,2.425l25.129,2.705
	l2.53-12.507l3.753-27.243l6.965-52.881l4.258-30.968l-24.598-3.68l-27.207-4.573l-33.429-6.315l-2.922,18.092l-0.458,0.457
	l-1.714,2.631l-2.518-0.114l-1.257-2.744l-2.744-0.343l-0.915-1.144h-0.914l-0.915,0.568l-1.94,1.028l-0.114,6.974l-0.229,1.718
	l-0.568,12.571l-1.486,2.174l-0.571,3.312l2.743,4.916l1.258,5.828l0.802,1.029l1.027,0.568l-0.114,2.286l-1.601,1.372l-3.429,1.715
	l-1.943,1.942l-1.484,3.656l-0.57,4.916l-2.858,2.741l-2.058,0.688l-0.114,5.829l-0.457,1.716l0.457,0.801l3.658,0.57l-0.571,2.743
	l-1.485,2.172L174.2,415.979z"/>
<path id="NV" sodipodi:nodetypes="ccccccccccccccccccccccccccccccccccccc" fill="#EDEDED" d="M177.111,206.051l20.979,4.511
	l9.718,1.943l9.259,1.829l6.613,1.633l-0.56,5.865l-3.543,17.329l-4.093,19.98l-1.943,9.719l-2.172,13.281l-3.154,16.415
	l-3.521,15.686l-1.968,10.183l-2.468,16.771l-0.457,1.101l-1.071,2.469l-1.873-0.113l-1.099-2.742l-2.741-0.505l-1.396-0.979
	l-2.038,0.319l-0.915,0.729l-1.301,1.351l-0.436,6.977l-0.553,1.715l-0.411,12.094l-1.319,1.714l-1.876-2.263l-14.521-22.747
	l-19.433-29.035l-22.748-33.836l-12.382-18.582l1.636-6.566l6.973-25.949l7.891-31.348l33.604,8.143l13.717,2.972"/>
<path id="UT" sodipodi:nodetypes="ccccccccccccccccccccccccccc" fill="#EDEDED" d="M289.425,337.786l-24.644-3.474l-26.563-4.894
	l-33.825-6.021l1.588-9.157l3.2-15.203l3.313-16.573l2.172-13.604l1.943-8.917l3.771-20.461l3.544-17.49l1.113-5.573l12.718,2.258
	l12.002,2.058l10.287,1.829l8.348,1.372l3.678,0.479l-1.485,10.63l-2.312,13.173l7.808,0.928l16.407,1.805l8.211,0.856l-2.13,21.967
	l-3.201,22.566l-3.753,27.826l-1.666,11.105L289.425,337.786z"/>
<path id="CO" sodipodi:nodetypes="ccccccccccccccc" fill="#EDEDED" d="M415.074,285.275l1.438-21.282l-32.095-3.062l-24.464-2.7
	l-37.265-4.115L302,251.601l-2.63,22.176l-3.2,22.404l-3.754,27.984l-1.505,11.107l-0.251,2.764l33.927,3.795l37.74,4.269
	l31.961,3.165l16.606,0.848"/>
<path id="NM" sodipodi:nodetypes="ccccccccccccccccccccc" fill="#EDEDED" d="M319.178,459.524l-0.647-6.123l8.645,0.523
	l29.518,3.062l28.393,1.438l1.966-22.332l3.729-55.876l1.119-19.392l2.014,0.352l-0.014-11.074l-32.204-2.401l-36.938-4.428
	l-34.465-4.114l-4.2,30.759l-6.965,53.201l-3.752,26.924l-2.049,13.309l15.46,1.989l1.293-10.021l16.65,2.586L319.178,459.524z"/>
<path id="OR" sodipodi:nodetypes="cccccccccccccccccccccccccccccccccccccccccccccccccccccccccc" fill="#EDEDED" d="M176.76,205.167
	l4.298-17.901l4.665-17.879l1.053-4.229l2.354-5.623l-0.615-1.163l-2.516-0.046l-1.281-1.67l0.458-1.464l0.503-3.247l4.458-5.487
	l1.829-1.1l1.145-1.143l1.484-3.566l4.048-5.669l3.563-3.862l0.229-3.451l-3.271-2.469l-1.209-4.51l-13.237-3.745l-15.09-3.543
	l-15.432,0.114l-0.458-1.372l-5.487,2.058l-4.458-0.572l-2.398-1.6l-1.26,0.686l-4.687-0.229l-1.715-1.372l-5.26-2.058l-0.801,0.114
	l-4.344-1.486l-1.943,1.829l-6.173-0.343l-5.941-4.115l0.686-0.8l0.229-7.773l-2.285-3.887l-4.115-0.572l-0.687-2.515l-2.354-0.466
	L94.946,91.1l-2.267,6.466l-3.23,10.023l-3.233,6.466l-5.011,14.064l-6.467,13.58l-8.083,12.61l-1.94,2.91l-0.808,8.568
	l-1.293,5.981l2.708,3.527l6.729,2.251l11.594,3.293l7.864,2.539l12.414,3.634l13.328,3.59l13.168,3.565"/>
<path id="ND" sodipodi:nodetypes="cccccccccccccccccccc" fill="#EDEDED" d="M507.76,156.147l-0.363-7.496l-1.988-7.316
	l-1.829-13.649l-0.457-9.831l-1.989-3.108l-1.601-5.351V99.108l0.687-3.887l-2.113-5.499l-28.426-0.564l-18.592-0.646l-26.512-1.293
	l-24.946-1.884l-1.261,14.23l-1.372,15.089l-2.259,24.947l-0.486,11.021l56.816,3.764L507.76,156.147z"/>
<path id="SD" sodipodi:nodetypes="cccccccccccccccccccccccccccccccccccccccccc" fill="#EDEDED" d="M509.251,231.661l-0.953-1.081
	l-1.521-3.627l1.829-3.702l1.051-5.555l-2.583-2.058l-0.297-2.744l0.594-2.996l2.15-0.802l0.297-5.735l-0.068-30.086l-0.618-2.972
	l-4.112-3.59l-0.981-1.989v-1.921l1.896-1.279l1.53-1.853l0.187-2.72l-57.385-1.6l-56.176-3.887l-0.767,5.279l-1.613,15.868
	l-1.345,17.947l-1.601,24.597l16.025,1.029l19.639,1.143l17.992,1.303l23.776,1.304l10.743-0.778l2.858,2.286l4.319,2.973
	l0.981,0.754l3.541-0.891l4.047-0.297l2.743-0.068l3.111,1.211l4.548,1.439l3.134,1.761l0.617,1.921l0.914,1.897l0.706-0.481
	H509.251L509.251,231.661z"/>
<path id="NE" sodipodi:nodetypes="ccccccccccccccccccccccccccccccccccccc" fill="#EDEDED" d="M520.697,275.469l1.372,2.675
	l0.093,2.126l2.354,3.727l2.721,3.151h-5.051l-43.481-0.938l-40.787-0.892l-21.188-0.961l1.069-21.327l-33.379-2.744l4.345-44.01
	l15.547,1.029l20.116,1.143l17.832,1.143l23.777,1.144l10.745-0.458l2.058,2.286l4.802,2.972l1.146,0.915l4.344-1.372l3.889-0.458
	l2.741-0.229l1.829,1.372l5.029,1.601l2.973,1.6l0.457,1.601l0.915,2.058h1.828l0.799,0.046l0.981,5.212l2.742,8.026l1.233,4.641
	l2.126,3.818l0.524,4.938l1.438,4.273l0.552,6.472"/>
<path id="IA" sodipodi:nodetypes="cccccccccccccccccccccccccccccccccccccccccccccccccccccccccccccc" fill="#EDEDED" d="
	M603.048,230.107l0.17,1.942l2.287,1.14l1.144,1.257l0.344,1.262l3.888,3.202l0.688,2.173l-0.803,2.862l-1.485,3.544l-0.801,2.742
	l-2.175,1.603l-1.716,0.572l-5.481,1.485l-0.688,2.283l-0.799,2.285l0.572,1.372l1.716,1.714l-0.002,3.661l-2.169,1.603
	l-0.459,1.487v2.517l-1.489,0.457l-1.714,1.37l-0.455,1.483l0.455,1.719l-1.374,1.205l-2.294-2.691l-1.483-2.626l-8.341,0.799
	l-10.171,0.571l-25.036,0.688l-13.035,0.229l-9.374,0.229l-1.312,0.122l-1.653-4.472l-0.229-6.63l-1.602-4.115l-0.688-5.258
	l-2.286-3.658l-0.914-4.801l-2.743-7.544l-1.146-5.373l-1.37-2.172l-1.603-2.744l1.828-4.344l1.371-5.716l-2.743-2.058l-0.457-2.743
	l0.914-2.515h1.715h11.546l49.61-0.686l19.877-0.686l1.854,2.747l1.831,2.622l0.454,0.804l-1.829,2.749l0.454,4.222l2.519,3.886
	l2.969,1.824l2.405,0.23L603.048,230.107z"/>
<path id="MS" sodipodi:nodetypes="ccccccccccccccccccccccccccccccccccccccccccccccccccccc" fill="#EDEDED" d="M661.013,495.449
	l-0.254,1.256h-5.174l-1.454-0.811l-2.103-0.321l-6.79,1.938l-1.778-0.811l-2.587,4.203l-1.104,0.776l-1.123-2.487l-1.146-3.888
	l-3.43-3.199l1.144-7.546l-0.686-0.913l-1.829,0.229l-8.23,0.688l-24.23,0.688l-0.457-1.603l0.686-8.002l3.434-6.174l5.258-9.146
	l-0.914-2.059h1.143l0.688-3.2l-2.286-1.829l0.229-1.829l-2.06-4.57l-0.286-5.345l1.372-2.657l-0.398-4.345l-1.37-2.974l1.37-1.371
	l-1.37-2.06l0.457-1.829l0.913-6.173l2.974-2.743l-0.688-2.059l3.656-5.26l2.743-0.914v-2.517l-0.687-1.372l2.741-5.258l2.743-1.146
	l0.107-3.411l8.675-0.076l24.088-1.94l4.58-0.229l0.009,6.372l0.161,16.647l-0.808,31.038l-0.162,14.063l2.748,18.754
	L661.013,495.449z"/>
<path id="IN" sodipodi:nodetypes="ccccccccccccccccccccccccccccccccccccccccccccccccccc" fill="#EDEDED" d="M654.875,329.333
	l0.062-2.856l0.483-4.524l2.266-2.909l1.775-3.881l2.587-4.203l-0.481-5.818l-1.778-2.748l-0.323-3.232l0.812-5.496l-0.484-6.95
	l-1.294-16.005l-1.293-15.357l-0.972-11.72l3.069,0.889l1.454,0.97l1.133-0.323l2.104-1.94l2.829-1.617l5.093-0.162l21.985-2.263
	l5.573-0.533l1.505,15.957l4.251,36.84l0.601,5.771l-0.373,2.26l1.229,1.795l0.099,1.373l-2.521,1.602l-3.54,1.552l-3.202,0.549
	l-0.6,4.867l-4.573,3.312l-2.798,4.01l0.323,2.378l-0.581,1.533h-3.326l-1.586-1.615l-2.492,1.263l-2.685,1.504l0.161,3.055
	l-1.193,0.258l-0.468-1.018l-2.167-1.503l-3.25,1.341l-1.552,3.006l-1.438-0.81l-1.455-1.602l-4.465,0.485l-5.593,0.97
	L654.875,329.333z"/>
<path id="IL" sodipodi:nodetypes="ccccccccccccccccccccccccccccccccccccccccccccccccccccccccccccccccccccccccccccccccccccc" fill="#EDEDED" d="
	M654.259,330.081v-3.604l0.258-4.865l2.38-3.139l1.775-3.768l2.587-3.861l-0.372-5.252l-2.005-3.542l-0.098-3.349l0.694-5.271
	l-0.824-7.178l-1.066-15.778l-1.294-15.017l-0.922-11.639l-0.271-0.921l-0.81-2.587l-1.293-3.718l-1.617-1.778l-1.454-2.587
	l-0.229-5.489l-9.903,1.312l-27.206,1.715l-8.688-0.429l0.229,2.372l2.286,0.686l0.915,1.143l0.457,1.829l3.887,3.429l0.688,2.286
	l-0.688,3.429l-1.829,3.658l-0.688,2.515l-2.285,1.829l-1.829,0.686l-5.259,1.372l-0.688,1.829l-0.688,2.058l0.688,1.372l1.827,1.6
	l-0.229,4.114l-1.828,1.602l-0.688,1.601v2.743l-1.827,0.457l-1.604,1.146l-0.229,1.372l0.229,2.059l-1.715,1.313l-1.029,2.801
	l0.457,3.658l2.287,7.314l7.314,7.545l5.484,3.658l-0.229,4.344l0.914,1.372l6.397,0.457l2.743,1.372l-0.686,3.656l-2.286,5.944
	l-0.688,3.199l2.286,3.888l6.401,5.258l4.569,0.688l2.061,5.028l2.058,3.2l-0.914,2.975l1.603,4.113l1.829,2.06l1.941-0.792
	l0.688-2.164l2.036-1.438l3.234-1.101l3.089,1.18l2.876,1.064l0.791-0.21l-0.063-1.239l-1.065-2.769l0.438-2.378l2.279-1.564
	l2.356-0.987l1.163-0.42l-0.582-1.324l-0.76-2.167l1.245-1.262L654.259,330.081z"/>
<path id="MN" sodipodi:nodetypes="cccccccccccccccccccccccccccccccccccccccccccccccccccccccccccccccccccccccccccccccccccccccccccc" fill="#EDEDED" d="
	M508.333,156.951l-0.457-8.459l-1.829-7.316l-1.829-13.489l-0.457-9.831l-1.827-3.429l-1.604-5.03V99.108l0.688-3.887l-1.82-5.452
	l30.133,0.035l0.323-8.245l0.646-0.162l2.266,0.485l1.938,0.809l0.812,5.497l1.453,6.143l1.615,1.616h4.854l0.321,1.455l6.307,0.323
	v2.102h4.85l0.323-1.293l1.132-1.132l2.266-0.646l1.294,0.97h2.909l3.88,2.587l5.336,2.425l2.425,0.485l0.481-0.97l1.455-0.485
	l0.484,2.91l2.587,1.293l0.483-0.485l1.294,0.162v2.102l2.587,0.97h3.07l1.614-0.809l3.233-3.233l2.586-0.485l0.809,1.778
	l0.485,1.293h0.97l0.973-0.808l8.893-0.323l1.777,3.071h0.646l0.714-1.084l4.439-0.371l-0.612,2.28l-3.938,1.837l-9.246,4.061
	l-4.773,2.007l-3.069,2.587l-2.427,3.557l-2.265,3.879l-1.777,0.809l-4.523,5.011l-1.293,0.162l-3.844,2.934l-2.814,3.161
	l-0.229,2.97l0.229,7.778l-1.599,1.6l-5.26,4.114l-1.832,5.717l2.521,3.647l0.458,2.52l-1.147,2.974l-0.228,3.659l0.458,7.084
	l3.426,4.107h2.978l2.512,2.293l3.2,1.365l3.658,5.035l7.089,5.023l1.829,2.062l0.233,5.502l-20.588,0.686l-60.249,0.459
	l-0.339-35.677l-0.457-2.972l-4.114-3.429l-1.145-1.829v-1.601l2.058-1.6l1.372-1.372L508.333,156.951z"/>
<path id="WI" sodipodi:nodetypes="cccccccccccccccccccccccccccccccccccccccccccccccccccccccccccccccccccccccccccccccccccccccccccc" fill="#EDEDED" d="
	M649.395,225.661l0.368-2.97l-1.613-4.527l-0.646-6.143l-1.133-2.425l0.971-3.072l0.812-2.91l1.455-2.586l-0.647-3.395l-0.646-3.557
	l0.481-1.778l1.939-2.425l0.162-2.748l-0.812-1.293l0.646-2.586l0.481-3.233l2.748-5.658l2.91-6.79l0.161-2.263l-0.323-0.97
	l-0.808,0.485l-4.203,6.305l-2.749,4.042l-1.939,1.778l-0.809,2.263l-1.455,0.808l-1.131,1.94l-1.455-0.323l-0.162-1.778
	l1.294-2.425l2.104-4.688l1.775-1.617l1.104-2.292l-1.632-0.905l-1.37-1.372l-1.604-10.288l-3.658-1.144l-1.369-2.286l-12.573-2.743
	l-2.519-1.143l-8.229-2.287l-8.229-1.143l-4.17-5.405l-0.526,1.261l-1.133-0.162l-0.646-1.132l-2.748-0.808l-1.132,0.162
	l-1.778,0.97l-0.97-0.646l0.646-1.94l1.939-3.071l1.132-1.132l-1.938-1.455l-2.104,0.808l-2.91,1.94l-7.437,3.233l-2.91,0.646
	l-2.909-0.485l-0.979-0.878l-2.116,2.835l-0.229,2.744v8.459l-1.145,1.6l-5.258,3.887l-2.286,5.944l0.457,0.229l2.516,2.058
	l0.688,3.201l-1.829,3.201v3.887l0.458,6.63l2.972,2.972h3.431l1.827,3.201l3.434,0.458l3.887,5.715l7.088,4.115l2.058,2.744
	l0.914,7.43l0.688,3.315l2.286,1.601l0.229,1.372l-2.057,3.429l0.229,3.201l2.518,3.887l2.516,1.143l2.972,0.458l1.346,1.38h9.174
	l26.064-1.487L649.395,225.661z"/>
<path id="MO" sodipodi:nodetypes="ccccccccccccccccccccccccccccccccccccccccccccccccccccccccccccccccc" fill="#EDEDED" d="
	M592.242,278.006l-2.521-3.087l-1.144-2.286l-7.771,0.687l-9.83,0.457l-25.379,0.914l-13.485,0.229l-7.89,0.113l-2.284,0.113
	l1.257,2.516l-0.229,2.286l2.519,3.889l3.087,4.113l3.086,2.742l2.286,0.229l1.372,0.915v2.972l-1.829,1.602l-0.457,2.285
	l2.058,3.433l2.518,2.972l2.516,1.829l1.372,11.66l-0.688,35.32l0.229,4.688l0.457,5.385l23.434-0.117l23.206-0.687l20.807-0.802
	l11.653-0.229l2.169,3.426l-0.685,3.311l-3.088,2.399l-0.572,1.838l5.379,0.457l3.896-0.687l1.718-5.493l0.649-5.854l2.316-2.023
	l1.713-1.486l2.061-1.028l0.111-2.858l0.574-1.716l-1.031-1.748l-2.744,0.146l-2.17-2.625l-1.373-4.229l0.805-2.521l-1.944-3.428
	l-1.831-4.576l-4.799-0.799l-6.97-5.601l-1.721-4.111l0.801-3.201l2.061-6.06l0.459-2.862l-1.949-1.031l-6.854-0.798l-1.027-1.712
	l-0.108-4.229l-5.487-3.433l-6.978-7.771l-2.285-7.315l-0.229-4.226L592.242,278.006z"/>
<path id="AR" sodipodi:nodetypes="ccccccccccccccccccccccccccccccccccccccccccccc" fill="#EDEDED" d="M627.405,373.432l-3.851,0.938
	l-6.173-0.457l0.688-2.972l3.2-2.744l0.456-2.286l-1.827-2.973l-10.978,0.456l-20.806,0.915l-23.318,0.688l-23.316,0.457
	l1.601,6.856v8.229l1.372,10.977l0.229,37.838l2.282,1.942l2.976-1.372l2.742,1.145l0.432,10.322l22.886-0.145l18.864-0.802
	l10.121-0.196l1.146-2.092l-0.286-3.55l-1.823-2.973l1.601-1.484l-1.601-2.513l0.686-2.51l1.368-5.604l2.519-2.062l-0.687-2.284
	l3.657-5.372l2.741-1.367l-0.11-1.494l-0.349-1.825l2.855-5.6l2.401-1.257l0.386-3.431l1.771-1.239l0.856-4.232l-1.342-4.013
	l4.041-2.377l0.551-2.021l1.233-4.27L627.405,373.432z"/>
<path id="OK" sodipodi:nodetypes="ccccccccccccccccccccccccccccccccccccccccccccccccccccccccccccccccc" fill="#EDEDED" d="
	M411.797,351.05l-10.688-0.457l-6.433-0.483l0.259,0.197l-0.704,10.424l21.965,1.405l32.056,1.305l-2.335,24.419l-0.457,17.832
	l0.229,1.602l4.344,3.658l2.058,1.145l0.688-0.229l0.686-2.059l1.371,1.829h2.062v-1.371l2.739,1.371l-0.456,3.888l4.114,0.229
	l2.518,1.146l4.112,0.686l2.518,1.829l2.286-2.058l3.431,0.686l2.515,3.433h0.914v2.285l2.286,0.688l2.286-2.286l1.828,0.688h2.517
	l0.914,2.517l4.804,1.829l1.371-0.688l1.826-4.113h1.146l1.144,2.06l4.115,0.688l3.658,1.371l2.972,0.913l1.829-0.913l0.686-2.518
	h4.348l2.058,0.915l2.744-2.059h1.143l0.688,1.601h4.113l1.602-2.059l1.829,0.458l2.058,2.516l3.201,1.829l3.2,0.914l1.938,1.118
	l-0.39-37.219l-1.372-10.976l-0.161-8.872l-1.438-6.538l-0.777-7.18l-0.066-3.815l-12.139,0.318l-46.409-0.457l-45.038-2.06
	L411.797,351.05z"/>
<path id="KS" sodipodi:nodetypes="ccccccccccccccccccccc" fill="#EDEDED" d="M539.835,353.609l-12.618,0.205l-46.09-0.457
	l-44.558-2.06l-24.63-1.26l4.145-64.72l21.832,0.8l40.468,1.372l44.124,0.458h5.099l3.247,3.227l2.768,0.229l0.89,1.074v2.01
	l-1.827,1.603l-0.457,2.604l2.221,3.591l2.515,3.135l2.518,1.987l1.052,11.18L539.835,353.609z"/>
<path id="LA" sodipodi:nodetypes="cccccccccccccccccccccccccccccccccccccccccccccccccscccccccccccccccccccccccccccccscccccccccccccccccccccccccccc" fill="#EDEDED" d="
	M638.655,501.474l-1.028-2.614l-1.145-3.095l-3.314-3.541l0.915-6.75l-0.117-1.144l-1.263,0.344l-8.229,0.913l-25.025,0.459
	l-0.688-2.396l0.912-8.456l3.315-5.943l5.029-8.69l-0.571-2.396l1.256-0.683l0.459-1.952l-2.286-2.057l-0.111-1.941l-1.831-4.347
	l-0.456-5.94l-9.725,0.113l-19.205,0.915l-22.205,0.027l0.029,9.571l0.686,9.373l0.688,3.89l2.516,4.112l0.914,5.029l4.344,5.486
	l0.229,3.199l0.687,0.688l-0.688,8.459l-2.973,5.028l1.602,2.059l-0.688,2.515L560,509.027l-1.371,3.2l0.122,3.615l4.688-1.521
	l8.082-0.323l10.348,3.56l6.467,1.132l3.718-1.455l3.233,1.133l3.23,0.97l0.811-2.103l-3.232-1.132l-2.587,0.482l-2.748-1.615
	c0,0,0.161-1.295,0.812-1.455c0.646-0.16,3.067-0.972,3.067-0.972l1.778,1.455l1.778-0.971l3.229,0.646l1.455,2.428l0.324,2.264
	l4.524,0.323l1.776,1.775l-0.81,1.615l-1.293,0.812l1.614,1.613l8.405,3.561l3.559-1.293l0.971-2.429l2.587-0.646l1.778-1.455
	l1.293,0.971l0.809,2.91l-2.264,0.81l0.646,0.646l3.396-1.293l2.263-3.396l0.811-0.481l-2.104-0.323l0.811-1.616l-0.16-1.455
	l2.102-0.482l1.132-1.293l0.646,0.809c0,0-0.161,3.071,0.646,3.071c0.812,0,4.203,0.646,4.203,0.646l4.042,1.938l0.97,1.455h2.91
	l1.132,0.972l2.266-3.072v-1.455h-1.293l-3.396-2.747l-5.818-0.811l-3.23-2.263l1.132-2.748l2.264,0.321l0.161-0.646l-1.775-0.971
	v-0.484h3.23l1.777-3.071l-1.293-1.938l-0.323-2.748l-1.455,0.161l-1.938,2.102l-0.646,2.587l-3.07-0.646l-0.972-1.778l1.778-1.938
	l2.021-1.776L638.655,501.474z"/>
<path id="VA" sodipodi:nodetypes="ccccccccccccccccccccccccccccccccccccccccccccccccccccccccccccccccccccccccccccccccccc" fill="#EDEDED" d="
	M865.359,297.725l-0.146-1.946l6.452-2.551l-0.771,3.219l-2.923,3.778l-0.418,4.586l0.464,3.392l-1.828,4.979l-2.163,1.916
	l-1.475-4.643l0.446-5.447l1.587-4.185L865.359,297.725z M867.643,326.026L809.466,338.6l-37.428,5.279l-6.679-0.375l-2.585,1.927
	l-7.342,0.223l-8.382,0.979l-8.928,0.949l8.479-4.946l-0.015-2.074l1.521-2.146l10.553-11.501l3.947,4.479l3.781,0.965l2.544-1.141
	l2.234-1.312l2.537,1.345l3.914-1.429l1.876-4.558l2.604,0.54l2.854-2.131l1.799,0.491l2.827-3.677l0.35-2.083l-0.965-1.273
	l1.004-1.867l5.273-12.277l0.615-5.733l1.229-0.522l2.18,2.442l3.938-0.303l1.93-7.57l2.796-0.562l1.05-2.741l2.58-2.347
	l1.269-2.342l1.504-3.354l0.085-5.064l9.822,3.82c0.681,0.343,0.654-4.781,0.654-4.781l4.051,1.377l-0.462,2.629l8.154,2.938
	l1.294,1.794l-0.867,3.685l-1.267,1.325l-0.507,1.745l0.494,2.402l1.959,1.278l3.918,1.442l2.949,0.971l4.854,0.939l2.152,2.088
	l3.188,0.402l0.867,1.2l-0.438,4.688l1.373,1.104l-0.479,1.931l1.229,0.79l-0.224,1.385l-2.692-0.095l0.089,1.615l2.28,1.544
	l0.121,1.411l1.771,1.785l0.491,2.522l-2.555,1.381l1.57,1.494l5.803-1.688L867.643,326.026z"/>
<path id="DC" sodipodi:nodetypes="cccccc" fill="#EDEDED" d="M838.211,282.323l-1.077-1.638l-1.015-0.842l1.101-1.616l2.231,1.512
	L838.211,282.323z"/>
</svg>
